<svg id="VIKG" xmlns="http://www.w3.org/2000/svg" viewBox="0 0 188.5 90">
  <style>
    .st0{fill:#fff}.st1{fill:#ffc62f}.st2{fill:#e9bf9b}
  </style>
  <title>
    NFLSHOP_3C_TLP_minnesota_vikings
  </title>
  <path class="st0" d="M108.5 36.8l1.2-9.1h4.8v15.3h-3l.3-10.6-1.6 9.2h-3.4l-1.6-9.2.3 10.6h-3V27.6h4.8L108.5 36.8zM115.9 27.6h3.3v15.3h-3.3V27.6zM126.4 42.9l-3-9.2.4 9.2h-3.2V27.6h3.6l3 9.2-.4-9.2h3.2v15.3H126.4zM137.2 42.9l-3-9.2.4 9.2h-3.2V27.6h3.6l3 9.2-.4-9.2h3.2v15.3H137.2zM142.1 42.9V27.6h8.3v3h-5v3.1h3.8v2.8h-3.8v3.3h5v3L142.1 42.9 142.1 42.9zM150.7 41.9l1.2-2.8c.8.6 1.8.9 2.8.9 1.1 0 1.6-.4 1.6-1.4 0-1.2-.9-1.7-2-2.3-1.9-1-3-1.9-3-4.5s1.4-4.4 4.8-4.4c1.3-.1 2.5.3 3.5 1l-1.2 2.8c-.7-.4-1.4-.6-2.2-.6-.7-.1-1.3.3-1.4 1 0 .1 0 .2 0 .2 0 .9.5 1.2 1.7 1.8 2.4 1.2 3.3 2.1 3.3 4.9 0 2.9-1.6 4.6-4.7 4.6C153.6 43.2 152 42.8 150.7 41.9zM170 38.8c0 2.7-1.2 4.4-4.7 4.4s-4.7-1.7-4.7-4.4v-7c0-2.7 1.2-4.4 4.7-4.4s4.7 1.7 4.7 4.4V38.8zM164 38.3c0 1.5.2 2 1.3 2s1.3-.5 1.3-2v-6.1c0-1.5-.2-2-1.3-2s-1.3.5-1.3 2V38.3zM173.3 30.4h-2.6v-2.8h8.5v2.8h-2.6v12.5h-3.3L173.3 30.4 173.3 30.4zM182.4 42.9h-3.5l2.4-15.3h4.9l2.4 15.3h-3.5l-.3-2.9h-2L182.4 42.9zM183 37.3h1.4l-.7-6.3L183 37.3zM108.1 46.3h3.5l-2.4 15.3h-4.9L102 46.3h3.5l1.3 12L108.1 46.3zM112.5 46.3h3.3v15.3h-3.3V46.3zM117.2 61.5V46.3h3.4l-.1 6.3 2.5-6.3h3.8l-3 6.2 3.2 9.1h-3.9l-1.8-5.7-.9 1.7.1 4L117.2 61.5 117.2 61.5zM127.6 46.3h3.3v15.3h-3.3V46.3zM138.1 61.5l-3-9.2.4 9.2h-3.2V46.3h3.6l3 9.2-.4-9.2h3.2v15.3H138.1L138.1 61.5zM148.5 58.3v-2.9h-1v-2.5h4.1v8.6h-2.2l-.2-.8c-.7.7-1.7 1.1-2.8 1-2.4 0-3.5-1.5-3.5-4.2v-7c0-2.6 1.3-4.5 5-4.5 1.4-.1 2.7.3 3.9 1l-1.3 2.8c-.7-.4-1.6-.7-2.4-.7-.9-.1-1.7.5-1.9 1.3 0 .1 0 .3 0 .4v5.9c0 1.5.4 1.9 1.2 1.9C147.9 58.7 148.3 58.6 148.5 58.3zM152.1 60.5l1.2-2.8c.8.6 1.8.9 2.8.9 1.1 0 1.6-.4 1.6-1.4 0-1.2-.9-1.7-2-2.3-1.9-1-3-1.9-3-4.5s1.4-4.4 4.8-4.4c1.3-.1 2.5.3 3.5 1l-1.2 2.8c-.7-.4-1.4-.6-2.2-.6-.7-.1-1.3.3-1.4 1 0 .1 0 .2 0 .2 0 .9.5 1.2 1.7 1.8 2.4 1.2 3.3 2.1 3.3 4.9 0 2.9-1.6 4.6-4.7 4.6C154.9 61.8 153.4 61.4 152.1 60.5z"/>
  <path class="st1" d="M37,62.1c0.5-1.7,1.3-3.2,2.6-4.5c-1.6,2.5-2.3,5.5-1.8,8.5c0.6-3.1,2-5.9,3.9-8.4c3.2-4.2,6.3-6.1,8.8-9.2
	c1.2-1.4,2.1-3.1,2.7-4.9c0.3-1,0.6-2,0.7-3c-0.7,0.1-1.3,0.2-2,0.2v0.1c-0.5,2.1-2,3.9-4,4.8c-2.7,2.7-6.7,4.6-8.9,6
	c-3.9,2.5-4.6,7.5-4.6,7.5c0.4-7.6,5.1-8.6,10.2-12.3c0.1-0.1,0.4-0.2,0.5-0.3l-0.2,0.1c-0.9,0-1.7-0.1-2.5-0.3
	c-0.5,0.4-1.1,0.7-1.6,1c-1.7,1-3.3,2.3-4.5,3.8c0.7-2.4,2.4-3.4,4.9-5.2c-1-0.4-1.9-1-2.7-1.8c-2.5,1.3-4.9,3-7,4.8
	c-2.7,2.4-5.6,4.3-8.9,5.8c3.5-2.5,6.8-5.3,9.9-8.2c0,0-6.7,3.9-8.6,5.2c1.6-1.7,3.5-3.2,5.6-4.5c-3.7,1.5-7.3,3.4-10.7,5.5
	c-2.5,1.8-4.9,3.9-7,6.1c0.7-0.2,3.5-0.7,4.3-0.8c5-0.5,10.6-0.1,15.4-5.9l0.2-0.3c-0.5,1.9-0.6,3.8-0.5,5.7c0.2,4.9,4,6.8,5.4,7.8
	C36.5,64.3,36.6,63.2,37,62.1z"/>
  <path class="st1" d="M25.7,57.7L25.7,57.7c0.7,0.4,1.6,0.7,2.5,0.8c0.7,0,1.5-0.1,2.2-0.4c-0.1-1.2-0.1-2.5,0.1-3.7
	C30.5,54.4,28.2,57.1,25.7,57.7z"/>
  <path class="st0" d="M37.5,36.9L37.5,36.9c1.4,0.4,2.7,1,3.9,1.8c0,0-1.6-0.3-3.2-0.5c2,3,6,3.8,9,1.8c0.3-0.2,0.6-0.4,0.8-0.6
	c-0.2,0.2-0.5,0.3-0.7,0.4c-0.5,0.2-1,0.4-1.5,0.4c-0.7,0.2-1.4,0.2-2.1,0.1h0.1c2.8-0.5,5.4-2.6,5.1-5.9c-0.1-1.4-0.6-2.7-1.4-3.8
	c1.7,1.5,2.4,3.8,1.8,6c0.4-0.8,0.6-1.6,0.6-2.5c0.2,0.8,0.2,1.7-0.1,2.5c0.3-0.7,0.4-1.5,0.4-2.2c0,0.1,0,0.2,0,0.3l0,0
	c0-0.5-0.1-0.9-0.2-1.4v-0.1c-0.4-2.5-2.1-4.7-4.4-5.8c-2.6-1.2-5.6-1.6-8.4-1.3l-1.7,0.2c-3,0.4-5.9,0.8-9-1
	c-4-2.2-6.7-6.3-7.2-10.9L19,13.9c-0.1-0.6-0.1-1.3-0.1-2c0-0.3,0-0.6-0.1-0.8c0,0,0,0.1,0,0.1c0,0.5-0.1,1-0.2,1.5
	c-0.1,0.6-0.2,1.7-0.2,1.7s0-0.1,0-0.1c0-0.2,0-0.3,0-0.5c0-0.3,0-0.7,0-1c0-0.8-0.2-3.2-0.2-3.5c0-0.1-0.1-0.3-0.1-0.4
	c0,0.3,0,0.6,0,0.9c0,0.7-0.2,1.6-0.3,2.3s-0.2,1.5-0.3,2.2c0,0.2,0,0.4-0.1,0.5l0,0c0-0.4-0.2-1.9-0.1-3.5v-0.3V11
	c-0.4,2-0.6,4.1-0.6,6.1c0,0.1,0,0.3,0,0.4c0,2.4,0.4,4.9,1.2,7.2c2,5.1,5.9,8.5,11.5,10.1C32.1,35.6,35.3,36.2,37.5,36.9z"/>
  <path class="st1" d="M41.9 70.1c-1.2-1-2.5-1.8-3.8-2.6-1.3-.7-2.5-1.4-3.7-2.3 0 1.6.5 3.2 1.2 4.5.9 1.5 3.5 2.8 5.2 3.8C41 73 41.3 71.6 41.9 70.1zM38.7 66.9c1.2.8 2.7 1.7 3.5 2.3.2-.5.4-.9.6-1.4 1.3-2.6 2.6-3.5 3.1-6.1.4-2.1-.3-4.2-1.7-5.7-1.6 1.7-2.9 3.7-4 5.8C39.5 63.4 39 65.1 38.7 66.9zM33.2 36.8l-.7-.2-1.4-.3-1.5-.4c0 .1 0 .3-.1.4-.1.5-.1.9-.2 1.4C30.5 37.4 31.8 37.1 33.2 36.8L33.2 36.8 33.2 36.8z"/>
  <path class="st0" d="M36.5,20c-4.3-2.6-5.4-5.2-6-8.8c-0.1-0.6-0.2-1.1-0.4-1.7c0.1,0.9,0.1,1.8,0,2.6c-0.2-1.2-0.6-2.4-1-3.6
	c0.2,1.3,0.4,2.6,0.4,3.9c-0.2-1.1-0.4-2.1-0.7-3.1c0.1,0.7,0.2,1.3,0.2,1.8c0.2,1.8-0.2,5,1.1,8.3c0.8,1.8,2.1,3.4,3.7,4.6
	C34.6,22.7,35.7,21.2,36.5,20z"/>
  <path class="st2" d="M67.1,42.9c-1.3,0.5-4.4-0.4-6.3-0.5c-1.1-0.1-2.3,0.2-3.2,0.8c-0.3-1-0.3-2.1,0.1-3.1c-0.4,0-1.8,0.2-2.2,0.2
	c-0.1,0-0.2,0.1-0.4,0.1c0,0,0,0.1,0,0.1s-0.6,4.6-2.8,7.7c0.9,0.3,1.7,0.7,2.5,1.2c0.7,0.7,1.1,1.6,1,2.6c-0.1,1.1-0.3,2.1-0.6,3.1
	c0-1.1-0.2-2.2-0.3-3.3c-0.3-0.8-1-1.4-1.9-1.7c-0.4-0.1-1-0.3-1.8-0.5c-1.3,1.4-2.8,2.8-4.3,4c0.1,0.2,0.4,0.4,0.6,0.5
	c0.6,0.1,1.3,0,1.9-0.3c-0.3,2,0,4,1.1,5.7c0.9,1.1,2.4,1.7,3.8,1.5c0.4-2.5,1.5-4.9,3-6.9c1.7-2.3,4.1-4,6.8-4.9
	c-0.1-0.5-0.1-1,0-1.4c0.2-0.5,0.7-0.9,1.3-0.9c0.5,0,0.9,0.1,1.3,0.3c-0.6-0.1-1.2,0-1.7,0.4c-0.3,0.4-0.4,1-0.2,1.4
	c1.2-0.2,2.4-0.2,3.6,0c0.3,0.1,0.6,0,0.7-0.3c0,0,0-0.1,0-0.1c0.1-0.4,0.1-0.8-0.1-1.1c-0.2-0.2-0.6-0.2-0.9-0.5
	c-0.5-0.5-0.7-1.2-0.6-1.9C67.6,44.4,67.4,43.6,67.1,42.9z M62.7,43.6c0.3,0.3,0.5,0.7,0.7,1.1c0,0,0,0.1,0,0.2l0,0v0.1l0,0
	c0,0.7-0.2,1.5-0.5,2.2c0,0.1-0.1,0.2-0.2,0.2c-0.4,0.4-1.1,0.7-2.3,1.6c-1,0.8-1.9,1.8-2.5,3c0.2-1.1,0.7-2.1,1.3-2.9
	c0.9-1.1,2.1-2,3.3-2.7l0.3-1.8c-0.3-0.2-0.6-0.4-1-0.5c-0.9-0.1-1.9-0.2-2.8-0.4l0,0c0.9-0.1,1.5-0.4,2.8-0.6
	c0.8-0.1,1.6-0.1,2.4,0.2C63.7,43.3,63.2,43.4,62.7,43.6L62.7,43.6z"/>
  <path class="st1" d="M59 40.1c-.4.5-.6 1.2-.5 1.8.5-.5 1.2-.8 1.9-.9 1-.2 2.1-.2 3.1-.1-.6.1-1.1.3-1.6.5 1.9.2 2.2.9 4.8.7 1.4-.1 2.6-1.1 2.8-2.6-.6.2-1.2.4-1.9.6-1.6.1-3.2.1-4.7-.2C62 39.8 59.7 39.6 59 40.1zM34 25.4l1.2-.1 1.8-.2c1.2-.1 2.4-.1 3.6 0 1.8.2 3.5.6 5.2 1.3 2.8 1.2 4.7 3.8 5.2 6.8l0 0c0 .1 0 .2 0 .2v.1c0 .1 0 .2 0 .3l0 0c2.4-.3 4.7-.4 7.1-.5 2 0 4.1.2 6.1.5-1.3-3-3.2-5.8-5.6-8.1-5.4-5.2-12.4-8.3-19.8-8.8-.1.9-.4 1.8-.8 2.6-.3.6-.6 1.1-1 1.6-.6.8-1.8 2.4-2.8 4.1L34 25.4zM41.9 78.8l1.3-2.4c-.6-.5-1.2-.9-1.8-1.3-.7-.4-1.8-1-2.8-1.6 0 1.1.3 2.1.8 3.1C40.1 77.5 40.9 78.3 41.9 78.8zM37.7 43.2c-.1-.1-.2-.3-.3-.4l-.2-.2c-.7.1-10 1.4-21.3 8.9-3.8 2.8-7.3 5.9-10.5 9.4 1-.4 3-1.3 4.7-1.8 2.1-2.3 4.5-4.4 7-6.3C23.5 48.8 30.5 45.5 37.7 43.2zM65.1 55.4c1.7-1.1 3.5-2 5.4-2.5-.2-1.2-.8-2.3-1.7-3.1-1.8-.4-3.7-.1-5.4.7-3.1 1.4-5.6 3.9-7.1 7-1 2.6-1.5 5.3-1.5 8-.1 2.2.2 5.5-.7 8.5 0 0 1.4-2.1 1.9-8 .5-5.4 1.8-9.1 4.3-10.8-1.4 2.2-2.3 4.6-2.7 7.2-.7 4.5-.5 6.3-1.4 10l-.2.7c0 0 2-2.7 3.1-9.6.9-6 2.7-8.8 5.1-10.2-2.1 2.5-3.5 5.4-4 8.6C60.4 61.9 62.2 57.3 65.1 55.4z"/>
  <path class="st2" d="M49 59.8c-.7-1.3-1.2-2.6-1.5-4-.7 0-1.4-.4-1.8-.9l-.3.3c.8 1.3 1.4 2.6 1.7 4.1.5 2-.8 5.3-.8 5.3.5 1.2.8 2.4 1 3.7l.1-.1c0 0 3.5-1.9 5.4-2.7.3-.1.7-.3 1.1-.4 0-1 .1-1.9.3-2.9h-1C51.4 62.3 49.8 61.3 49 59.8zM68.4 62.2c-1 0-4.8-.2-7.1-.2l0 0c-.3.4-.5.9-.6 1.3.7-.1 1.3-.2 1.9-.3 3.2-.5 5.8-.6 6.3-.6.5 0 1-.1 1.5-.3C70.3 62.2 69.4 62.3 68.4 62.2z"/>
  <path class="st1" d="M39.7,80.2c0.2,0.5,0.6,0.9,1.1,1.2c0.3-0.9,0.7-1.9,0.7-1.9c-0.5-0.3-0.9-0.6-1.4-0.9
	C39.7,78.9,39.5,79.6,39.7,80.2z"/>
  <path class="st2" d="M69.6,58.3c-0.6-0.2-1.2-0.2-1.8-0.2c0.4-1.1,0.7-2.2,0.8-3.3c0,0-5.1,2.2-6.6,6.2c0,0,3.1,0.1,4.8,0.3
	s2.8,0.2,3.2,0.2s1.2,0.1,0.9-1.3S70.2,58.6,69.6,58.3z"/>
  <path class="st1" d="M39.4 86c-.4.5-.5 1.2-.3 1.8.2.2.5.3.7.1 0 0 .1-.1.1-.1.3-.3.3-.8 0-1.1C39.7 86.5 39.5 86.3 39.4 86zM45.3 66c-.2.3-.6.9-.8 1.2-1.3 2.2-2.2 4.5-2.9 7l.5.3c.5.3 1 .7 1.4 1.2.3-.6 1-1.2 1.2-1.6 1-1.6 1.5-3.5 1.4-5.4C46.1 67.7 45.8 66.8 45.3 66zM40.4 84.5c-.3-.2-.6-.5-.9-.8-.7 1.2-.4 1.5.6 2.2.4.2.6.7.6 1.1.4-.2.7-.6.8-1.1C41.4 85.4 41 84.8 40.4 84.5zM42.8 78.6c-.5 1-1 2-1.3 3.1l.2.1c.5.4.9.8 1.2 1.3.9-1 1.6-2.2 2.1-3.5.3-1.3.3-2.7-.1-4.1C44.1 76.6 43.4 77.6 42.8 78.6zM40.9 82.2c-.4-.2-.8-.5-1.1-.8-.3.4-.4.8-.3 1.3.3.6.8 1.1 1.5 1.3.4.2.8.6 1 1.1.5-.3.7-.9.5-1.4C42.1 83 41.6 82.5 40.9 82.2z"/>
  <path d="M64.7,34.8c-2.2-0.4-4.4-0.6-6.6-0.6c-2.4,0-4.7,0.2-7.1,0.4l0,0c-0.1,4.2-3.5,7.5-7.7,7.4
	c-2.9,0-5.5-1.7-6.7-4.3l-1.2-0.3c-0.7,0.1-1.4,0.2-2.2,0.3c-1.4,0.2-2.9,0.6-4.1,0.9c-0.1,0.6-0.2,1.7-0.2,1.8
	c-0.2,3.6,0.1,3.4,0.1,3.4c1-0.4,4.9-1.4,4.9-1.4c1.1-0.3,2.5-0.5,4.1-0.8c1.7,3.4,5.7,4.8,9.1,3.1c1.9-1,3.3-2.8,3.7-4.9
	c7.3-0.8,10.7-0.8,15.2-0.2C65.8,37.9,65.4,36.3,64.7,34.8z" fill="#4f2683"/>
  <path d="M64.2,43.2c-0.8-0.3-1.6-0.4-2.4-0.2c-1.4,0.2-1.9,0.5-2.8,0.6l0,0c0.9,0.2,1.8,0.3,2.8,0.4c0.4,0.1,0.7,0.2,1,0.5l-0.4,1.7
	c-1.3,0.7-2.4,1.6-3.3,2.7c-0.1,0.1-0.2,0.2-0.2,0.3l-0.1,0.2l-0.1,0.2l-0.1,0.2L58.4,50c-0.1,0.3-0.3,0.7-0.4,1v0.1
	c-0.1,0.2-0.1,0.4-0.2,0.5v0.2c0,0,0.1-0.2,0.3-0.5l0.1-0.2c0.4-0.6,0.8-1.2,1.3-1.7l0.2-0.2c0.2-0.1,0.3-0.3,0.5-0.4
	c1.3-0.9,1.9-1.2,2.3-1.6c0.1-0.1,0.1-0.1,0.2-0.2c0.3-0.7,0.5-1.4,0.5-2.2l0,0v0c0,0,0-0.1,0-0.1l0,0c-0.2-0.4-0.4-0.7-0.7-1.1
	C63.2,43.4,63.7,43.3,64.2,43.2z M64.2,43.2c-0.8-0.3-1.6-0.4-2.4-0.2c-1.4,0.2-1.9,0.5-2.8,0.6l0,0c0.9,0.2,1.8,0.3,2.8,0.4
	c0.4,0.1,0.7,0.2,1,0.5l-0.4,1.7c-1.3,0.7-2.4,1.6-3.3,2.7c-0.1,0.1-0.2,0.2-0.2,0.3l-0.1,0.2l-0.1,0.2l-0.1,0.2L58.4,50
	c-0.1,0.3-0.3,0.7-0.4,1v0.1c-0.1,0.2-0.1,0.4-0.2,0.5v0.2c0,0,0.1-0.2,0.3-0.5l0.1-0.2c0.4-0.6,0.8-1.2,1.3-1.7l0.2-0.2
	c0.2-0.1,0.3-0.3,0.5-0.4c1.3-0.9,1.9-1.2,2.3-1.6c0.1-0.1,0.1-0.1,0.2-0.2c0.3-0.7,0.5-1.4,0.5-2.2l0,0v0c0,0,0-0.1,0-0.1l0,0
	c-0.2-0.4-0.4-0.7-0.7-1.1C63.2,43.4,63.7,43.3,64.2,43.2z M64.2,43.2c-0.8-0.3-1.6-0.4-2.4-0.2c-1.4,0.2-1.9,0.5-2.8,0.6l0,0
	c0.9,0.2,1.8,0.3,2.8,0.4c0.4,0.1,0.7,0.2,1,0.5l-0.4,1.7c-1.3,0.7-2.4,1.6-3.3,2.7c-0.1,0.1-0.2,0.2-0.2,0.3l-0.1,0.2l-0.1,0.2
	l-0.1,0.2L58.4,50c-0.1,0.3-0.3,0.7-0.4,1v0.1c-0.1,0.2-0.1,0.4-0.2,0.5v0.2c0,0,0.1-0.2,0.3-0.5l0.1-0.2c0.4-0.6,0.8-1.2,1.3-1.7
	l0.2-0.2c0.2-0.1,0.3-0.3,0.5-0.4c1.3-0.9,1.9-1.2,2.3-1.6c0.1-0.1,0.1-0.1,0.2-0.2c0.3-0.7,0.5-1.4,0.5-2.2l0,0v0c0,0,0-0.1,0-0.1
	l0,0c-0.2-0.4-0.4-0.7-0.7-1.1C63.2,43.4,63.7,43.3,64.2,43.2z M64.2,43.2c-0.8-0.3-1.6-0.4-2.4-0.2c-1.4,0.2-1.9,0.5-2.8,0.6l0,0
	c0.9,0.2,1.8,0.3,2.8,0.4c0.4,0.1,0.7,0.2,1,0.5l-0.4,1.7c-1.3,0.7-2.4,1.6-3.3,2.7c-0.1,0.1-0.2,0.2-0.2,0.3l-0.1,0.2l-0.1,0.2
	l-0.1,0.2L58.4,50c-0.1,0.3-0.3,0.7-0.4,1v0.1c-0.1,0.2-0.1,0.4-0.2,0.5v0.2c0,0,0.1-0.2,0.3-0.5l0.1-0.2c0.4-0.6,0.8-1.2,1.3-1.7
	l0.2-0.2c0.2-0.1,0.3-0.3,0.5-0.4c1.3-0.9,1.9-1.2,2.3-1.6c0.1-0.1,0.1-0.1,0.2-0.2c0.3-0.7,0.5-1.4,0.5-2.2l0,0v0c0,0,0-0.1,0-0.1
	l0,0c-0.2-0.4-0.4-0.7-0.7-1.1C63.2,43.4,63.7,43.3,64.2,43.2z M64.2,43.2c-0.8-0.3-1.6-0.4-2.4-0.2c-1.4,0.2-1.9,0.5-2.8,0.6l0,0
	c0.9,0.2,1.8,0.3,2.8,0.4c0.4,0.1,0.7,0.2,1,0.5l-0.4,1.7c-1.3,0.7-2.4,1.6-3.3,2.7c-0.1,0.1-0.2,0.2-0.2,0.3l-0.1,0.2l-0.1,0.2
	l-0.1,0.2L58.4,50c-0.1,0.3-0.3,0.7-0.4,1v0.1c-0.1,0.2-0.1,0.4-0.2,0.5v0.2c0,0,0.1-0.2,0.3-0.5l0.1-0.2c0.4-0.6,0.8-1.2,1.3-1.7
	l0.2-0.2c0.2-0.1,0.3-0.3,0.5-0.4c1.3-0.9,1.9-1.2,2.3-1.6c0.1-0.1,0.1-0.1,0.2-0.2c0.3-0.7,0.5-1.4,0.5-2.2l0,0v0c0,0,0-0.1,0-0.1
	l0,0c-0.2-0.4-0.4-0.7-0.7-1.1C63.2,43.4,63.7,43.3,64.2,43.2z M64.2,43.2c-0.8-0.3-1.6-0.4-2.4-0.2c-1.4,0.2-1.9,0.5-2.8,0.6l0,0
	c0.9,0.2,1.8,0.3,2.8,0.4c0.4,0.1,0.7,0.2,1,0.5l-0.4,1.7c-1.3,0.7-2.4,1.6-3.3,2.7c-0.1,0.1-0.2,0.2-0.2,0.3l-0.1,0.2l-0.1,0.2
	l-0.1,0.2L58.4,50c-0.1,0.3-0.3,0.7-0.4,1v0.1c-0.1,0.2-0.1,0.4-0.2,0.5v0.2c0,0,0.1-0.2,0.3-0.5l0.1-0.2c0.4-0.6,0.8-1.2,1.3-1.7
	l0.2-0.2c0.2-0.1,0.3-0.3,0.5-0.4c1.3-0.9,1.9-1.2,2.3-1.6c0.1-0.1,0.1-0.1,0.2-0.2c0.3-0.7,0.5-1.4,0.5-2.2l0,0v0c0,0,0-0.1,0-0.1
	l0,0c-0.2-0.4-0.4-0.7-0.7-1.1C63.2,43.4,63.7,43.3,64.2,43.2z M71.7,59.4c-0.2-0.7-0.6-1.3-1.3-1.5C70,57.8,69,57.5,69,57.5
	c0.4-1.1,0.6-2.2,0.7-3.3c0.6-0.3,1.9-0.8,1.9-0.8c-0.3-1.5-1-2.8-2-4c0.2-0.5,0.3-1,0.4-1.6c-0.2-0.5-0.6-0.9-1.2-1.2
	c-0.5-0.5-0.8-1.2-0.7-1.9c0-0.7-0.2-1.3-0.5-1.9c0.9-0.4,1.6-1.1,2-2c0.3-0.8,0.5-1.7,0.5-2.6c-0.7,1-3.3,1.4-3.3,1.4
	c-0.1-2.3-1.9-9.6-9.2-16.2s-19.8-7.8-19.8-7.8c0,0.4-0.1,0.9-0.2,1.3c-0.1,0.7-0.3,1.3-0.6,2L37.1,19c-1.7-0.8-3.2-2.1-4.3-3.7
	c-1.6-2.8-1.4-5.3-2.3-7.3c-0.9-2.1-2.3-4.1-4-5.6C26.1,2.1,26,2,25.8,2.2s-0.1,0.4,0.1,0.6c0.9,1.8,1.6,3.8,1.8,5.9
	c0.5,3.3-0.2,8.4,1.4,11.8c0.9,1.8,2.1,3.4,3.6,4.6l0.1,0.1l0.3,0.3c-2.2,0.3-4.4,0-6.4-1.1c-3.7-2.1-6.2-5.9-6.6-10.1l-0.1-0.5
	C20,12.6,20,11.4,20,10.2c0-1.1-0.2-2.1-0.4-3.2c-0.1-0.5-0.2-0.9-0.3-1.4l0,0c-0.1-0.3-0.1-0.6-0.2-0.8c0-0.2-0.1-0.4-0.2-0.6
	c-0.1-0.4-0.3-0.8-0.5-1.2c-0.3-0.4-0.6-0.9-0.9-1.3c-0.2-0.2-0.5-0.5-0.7-0.6c-0.1-0.1-0.3-0.1-0.4-0.1c0,0-0.2,0.1,0,0.6
	c0,0.1,0.1,0.2,0.1,0.2c0,0.1,0.1,0.2,0.1,0.3c0,0.1,0.1,0.2,0.1,0.4c0.3,2.3,0.1,4.6-0.4,6.8l0,0c-0.1,0.6-0.1,1.1-0.2,1.7
	c-0.4,2-0.6,4-0.7,6c0,0.1,0,0.4,0,0.4c0,1.9,0.3,14.3,13.1,18.2c-0.1,0.3-0.1,0.5-0.2,0.8c-0.9,5.5-0.5,7.8-0.5,7.8v0.1
	c-3,1.1-5.9,2.5-8.7,4.1c-4,2.2-7.7,4.9-11,8.1c-0.7,0.7-1.4,1.3-2,2l-0.3,0.4l0,0c-1.6,1.8-3.1,3.6-4.5,5.6C7,60.4,16,59.1,18.7,59
	s5.8-0.7,5.8-0.7c0.8,0.4,1.6,0.7,2.5,0.9c1.1,0.2,2.2,0.1,3.2-0.2c0.4,2.1,1.6,4,3.2,5.4c-0.2,1.9,0.2,3.8,1,5.5
	c0.8,1.2,1.7,2.2,2.9,3c-0.1,0.9,0,1.9,0.3,2.8c0.3,0.8,0.8,1.6,1.4,2.2c-0.3,0.5-0.5,1.1-0.5,1.7c0,0.5,0.1,1.1,0.5,1.5
	c-0.3,0.4-0.5,0.8-0.6,1.2c0,0.4,0.1,0.9,0.2,1.3c-0.2,0.3-0.3,0.7-0.4,1c0,0.3,0,0.7,0.2,1c-0.2,0.4-0.8,2.3,0.1,3.1s2-0.7,2-0.7
	c0.5-0.2,1-0.5,1.3-1c0.2-0.3,0.4-0.7,0.4-1.2c0.4-0.3,0.7-0.7,0.9-1.1c0.2-0.3,0.3-0.7,0.3-1.1c1.2-1.3,2-2.9,2.4-4.7
	c0.2-1.4,0.1-2.9-0.2-4.3c0.9-1.5,1.4-3.1,1.4-4.8c2-1.4,4.3-2.6,6.6-3.6c0.2,2,0.2,4.1-0.2,6.1c-0.6,2.3-2,4.4-3.8,6
	c4.3-0.5,7.2-4.3,8.4-7.1c0.9-2.3,1.6-4.6,2.2-6.9c4.2-0.8,8.1-1,9.4-1.2c1.7-0.3,2.1-0.6,2.2-1.3C71.9,61,71.8,60.2,71.7,59.4z
	 M68.3,47c0.4,0.3,0.7,0.3,0.9,0.5c0.2,0.3,0.3,0.7,0.1,1.1C69.3,48.9,69,49,68.7,49c0,0-0.1,0-0.1,0c-1.2-0.2-2.4-0.2-3.6,0
	c-0.2-0.5-0.2-1,0.1-1.4c0.5-0.3,1.1-0.4,1.7-0.3c-0.4-0.2-0.9-0.3-1.3-0.3c-0.6,0-1.1,0.4-1.3,0.9c-0.1,0.5-0.1,1,0,1.4
	c-2.7,0.9-5.1,2.6-6.8,4.9c-1.5,2-2.5,4.4-2.9,6.9c-1.5,0.3-2.9-0.3-3.8-1.5c-1.1-1.7-1.4-3.7-1.1-5.7c-0.6,0.3-1.2,0.4-1.9,0.3
	c-0.3-0.1-0.5-0.3-0.6-0.5c1.5-1.2,3-2.6,4.3-4c0.8,0.2,1.4,0.3,1.8,0.5c0.8,0.3,1.5,0.9,1.9,1.7c0.2,1.1,0.3,2.2,0.3,3.3
	c0.3-1,0.5-2.1,0.6-3.1c0.1-1-0.3-1.9-1-2.6c-0.8-0.5-1.7-0.9-2.5-1.2c2.2-3,2.8-7.7,2.8-7.7s0-0.1,0-0.1c0.1,0,0.3,0,0.4-0.1
	c0.4,0,1.8-0.2,2.2-0.2c-0.3,1-0.4,2.1-0.1,3.1c1-0.6,2.1-0.8,3.2-0.8c1.9,0.1,5,1.1,6.3,0.5c0.3,0.7,0.5,1.5,0.6,2.3
	C67.6,45.9,67.8,46.5,68.3,47z M67.6,40c0.6-0.1,1.3-0.3,1.9-0.6C69.2,40.9,68,42,66.6,42c-2.5,0.2-2.9-0.4-4.8-0.7
	c0.5-0.3,1-0.4,1.6-0.5c-1-0.1-2.1-0.1-3.1,0.1c-0.7,0.1-1.3,0.4-1.9,0.9c-0.1-0.6,0.1-1.3,0.5-1.8c0.7-0.5,3-0.3,3.8-0.2
	C64.4,40.1,66,40.2,67.6,40L67.6,40z M66.1,39.4c-4.5-0.6-8-0.6-15.2,0.2c-0.7,3.7-4.2,6.1-7.9,5.5c-2.1-0.4-3.9-1.8-4.9-3.7
	c-1.6,0.3-2.9,0.6-4.1,0.8c0,0-3.9,1-4.9,1.4c0,0-0.2,0.2-0.1-3.4c0-0.1,0.1-1.1,0.2-1.8c1.2-0.3,2.7-0.7,4.1-0.9
	c0.8-0.1,1.5-0.2,2.2-0.3l1.2,0.4c1.7,3.8,6.2,5.4,10,3.7c2.6-1.2,4.4-3.9,4.4-6.8l0,0c2.4-0.3,4.7-0.4,7.1-0.4
	c2.2,0,4.4,0.2,6.6,0.6C65.4,36.3,65.8,37.9,66.1,39.4L66.1,39.4z M29.3,37.7c0-0.5,0.1-0.9,0.2-1.4c0-0.1,0-0.2,0.1-0.4l1.5,0.4
	l1.4,0.3l0.7,0.2h0.1h-0.1C31.8,37,30.5,37.4,29.3,37.7z M38,19.5c0.4-0.8,0.6-1.7,0.7-2.6c7.4,0.5,14.5,3.6,19.8,8.8
	c2.4,2.3,4.3,5.1,5.6,8.1c-2-0.3-4-0.5-6.1-0.5c-2.4,0-4.8,0.2-7.1,0.5l0,0c0-0.1,0-0.2,0-0.3v-0.1c0-0.1,0-0.2,0-0.2l0,0
	c-0.5-3-2.5-5.6-5.3-6.8c-1.6-0.7-3.4-1.2-5.2-1.4c-1.2-0.1-2.4-0.1-3.6,0c-0.6,0.1-1.2,0.1-1.8,0.2L34,25.4c0,0,0.2-0.3,0.2-0.3
	c1.1-1.6,2.3-3.3,2.8-4.1C37.4,20.5,37.7,20,38,19.5z M30,19.5c-1.3-3.3-0.8-6.5-1-8.3c0-0.5-0.1-1.2-0.2-1.8c0.3,1,0.6,2,0.7,3.1
	c0-1.3-0.2-2.6-0.4-3.9c0.4,1.2,0.8,2.4,1,3.6c0.1-0.9,0.1-1.8,0-2.6c0.2,0.5,0.3,1.1,0.4,1.7c0.7,3.6,1.7,6.1,6,8.8
	c-0.7,1.2-1.9,2.8-2.7,4C32.1,22.9,30.8,21.3,30,19.5L30,19.5z M17.7,24.7c-0.9-2.3-1.3-4.7-1.3-7.2c0-0.1,0-0.3,0-0.4
	c0-2.1,0.2-4.1,0.6-6.1c0-0.1,0-0.1,0-0.2v0.3c0,1.6,0.1,3.1,0.1,3.5l0,0c0,0,0-0.3,0.1-0.5c0.1-0.7,0.2-1.5,0.3-2.2
	s0.2-1.6,0.3-2.3c0-0.3,0-0.6,0-0.9C17.9,8.9,18,9,18,9.2c0.1,0.3,0.2,2.7,0.2,3.5c0,0.3,0,0.7,0,1c0,0.2,0,0.3,0,0.5
	c0,0,0,0.1,0,0.1c0,0,0.1-1.1,0.2-1.7c0.1-0.5,0.2-1,0.2-1.5c0-0.1,0.1-0.1,0.1-0.2c0.1,0.3,0.2,0.5,0.2,0.8c0,0.7,0.1,1.4,0.1,2
	l0.1,0.5c0.5,4.6,3.2,8.7,7.2,11c3.1,1.7,5.9,1.4,9,1l1.7-0.2c2.9-0.3,5.8,0.1,8.4,1.3c2.3,1.1,4,3.2,4.4,5.8v0.1
	c0.1,0.4,0.1,0.9,0.2,1.4l0,0c0-0.1,0-0.2,0-0.3c0,0.8-0.2,1.5-0.4,2.2c0.3-0.8,0.3-1.7,0.1-2.5c0,0.9-0.2,1.7-0.6,2.5
	c0.7-2.2,0-4.5-1.8-6c0.8,1.1,1.3,2.4,1.3,3.8c0.3,3.3-2.3,5.4-5.1,5.9h-0.1c0.7,0.1,1.4,0.1,2.1-0.1c0.5,0,1-0.2,1.5-0.4
	c0.3-0.1,0.5-0.3,0.8-0.4c-2.6,2.4-6.7,2.3-9.2-0.3c-0.2-0.3-0.4-0.5-0.6-0.8c1.6,0.2,3.2,0.5,3.2,0.5c-1.2-0.8-2.5-1.4-3.9-1.8l0,0
	c-2.2-0.7-5.3-1.3-8.1-2C23.7,33.3,19.7,29.8,17.7,24.7z M10.2,59.2c-1.6,0.5-3.7,1.4-4.7,1.8c3.2-3.5,6.7-6.7,10.6-9.4
	c11.2-7.6,20.6-8.8,21.3-8.9l0.2,0.2c0.1,0.2,0.2,0.3,0.3,0.4c-7.3,2.3-14.2,5.5-20.6,9.7C14.6,54.8,12.3,56.9,10.2,59.2z
	 M30.4,58.1c-0.7,0.2-1.4,0.4-2.2,0.4c-0.9-0.1-1.8-0.3-2.6-0.8h0.1c2.5-0.6,4.7-3.3,4.7-3.3C30.3,55.6,30.3,56.9,30.4,58.1
	L30.4,58.1z M31.2,57.6c-0.1-1.9,0.1-3.8,0.5-5.7l-0.2,0.3c-4.8,5.9-10.4,5.4-15.4,6c-0.8,0.1-3.5,0.6-4.3,0.8
	c2.1-2.2,4.5-4.3,7-6.1c3.4-2.1,7-3.9,10.7-5.5c-2.1,1.2-3.9,2.7-5.6,4.5c1.9-1.3,8.2-4.9,8.6-5.2c-3.1,2.9-6.4,5.7-9.9,8.2
	c3.2-1.5,6.2-3.5,8.9-5.8c2.1-1.9,4.5-3.5,7-4.8c0.8,0.8,1.7,1.4,2.7,1.8c-2.5,1.8-4.2,2.8-4.9,5.2c1.2-1.5,2.8-2.8,4.5-3.8
	c0.6-0.3,1.1-0.6,1.6-1c0.8,0.2,1.7,0.2,2.5,0.3l0.2-0.1c-0.1,0.1-0.4,0.2-0.5,0.3c-5.1,3.7-9.8,4.7-10.2,12.3
	c0.1-0.4,0.8-5,4.6-7.4c2.2-1.4,6.2-3.3,8.9-6c2-0.9,3.5-2.6,4-4.8v-0.1c0.7-0.1,1.3-0.2,2-0.2c-0.1,1-0.3,2-0.7,3
	c-0.6,1.8-1.5,3.4-2.7,4.9c-2.6,3.1-5.6,5.1-8.8,9.2c-1.9,2.5-3.3,5.3-3.9,8.4c-0.5-2.9,0.1-6,1.8-8.5c-1.2,1.3-2.1,2.8-2.5,4.5
	c-0.3,1.1-0.5,2.2-0.4,3.3C35.1,64.4,31.3,62.5,31.2,57.6L31.2,57.6z M46,61.7c-0.5,2.7-1.8,3.6-3.1,6.1c-0.2,0.4-0.4,0.9-0.6,1.4
	c-0.8-0.6-2.3-1.6-3.5-2.3c0.2-1.8,0.7-3.5,1.4-5.2c1.1-2.1,2.4-4,4-5.8C45.7,57.5,46.4,59.6,46,61.7L46,61.7z M35.6,69.8
	c-0.8-1.4-1.2-2.9-1.2-4.5c1.2,0.8,2.4,1.6,3.7,2.3c1.3,0.8,2.6,1.7,3.8,2.6c-0.6,1.5-0.9,2.9-1.1,3.4
	C39.2,72.6,36.6,71.2,35.6,69.8z M38.6,73.6c1,0.6,2.2,1.2,2.8,1.6c0.6,0.4,1.2,0.8,1.8,1.3l-1.3,2.4c-1-0.5-1.8-1.3-2.4-2.2
	C38.9,75.8,38.6,74.7,38.6,73.6L38.6,73.6z M41.5,79.4c0,0-0.4,1-0.7,1.9c-0.5-0.2-0.9-0.6-1.1-1.2c-0.2-0.6-0.1-1.3,0.4-1.7
	C40.6,78.9,41,79.2,41.5,79.4L41.5,79.4z M39.9,87.8c-0.2,0.2-0.5,0.3-0.7,0.1c0,0-0.1-0.1-0.1-0.1c-0.2-0.6-0.1-1.3,0.3-1.8
	c0.1,0.3,0.3,0.5,0.5,0.8C40.1,87.1,40.1,87.5,39.9,87.8L39.9,87.8z M40.7,87.1c0-0.5-0.2-0.9-0.5-1.1c-1-0.7-1.3-1-0.6-2.2
	c0.3,0.3,0.6,0.5,0.9,0.8c0.5,0.4,0.9,0.9,1.1,1.5C41.5,86.5,41.2,86.9,40.7,87.1z M42,85.1c-0.2-0.5-0.6-0.8-1-1.1
	c-0.7-0.2-1.2-0.7-1.5-1.3c-0.1-0.4,0-0.9,0.3-1.3c0.3,0.4,0.7,0.6,1.1,0.8c0.7,0.3,1.2,0.8,1.5,1.4C42.7,84.2,42.5,84.8,42,85.1
	L42,85.1z M44.9,79.6c-0.5,1.3-1.2,2.5-2.1,3.5c-0.3-0.5-0.8-0.9-1.2-1.3l-0.2-0.1c0.4-1.1,0.8-2.1,1.3-3.1c0.6-1,1.3-2,2-3
	C45.2,76.9,45.3,78.3,44.9,79.6L44.9,79.6z M44.9,74.1c-0.2,0.5-0.9,1-1.2,1.6c-0.4-0.5-0.9-0.9-1.4-1.2l-0.6-0.4
	c0.6-2.4,1.6-4.8,2.9-6.9c0.2-0.3,0.5-0.8,0.8-1.2c0.5,0.8,0.8,1.7,0.9,2.6C46.4,70.5,45.9,72.4,44.9,74.1L44.9,74.1z M53.9,65.2
	c-0.4,0.1-0.8,0.3-1.1,0.4c-1.9,0.8-5.4,2.7-5.4,2.7l-0.1,0.1c-0.2-1.3-0.5-2.5-0.9-3.7c0,0,1.3-3.3,0.8-5.3
	c-0.3-1.5-0.9-2.8-1.7-4.1l0.3-0.3c0.4,0.6,1.1,0.9,1.8,0.9c0.3,1.4,0.8,2.7,1.5,4c0.8,1.5,2.4,2.4,4.1,2.5h1
	C54,63.2,53.9,64.2,53.9,65.2L53.9,65.2z M59.3,63.5c-1.1,6.9-3.1,9.5-3.1,9.5l0.2-0.7c0.8-3.7,0.7-5.5,1.4-10
	c0.3-2.6,1.3-5.1,2.7-7.2c-2.5,1.7-3.8,5.4-4.3,10.8c-0.5,5.8-1.8,7.9-1.9,8c0.9-3,0.5-6.3,0.6-8.5c0-2.7,0.5-5.4,1.5-8
	c1.5-3.1,4-5.6,7.1-7c1.7-0.8,3.6-1.1,5.4-0.7c0.9,0.8,1.5,1.9,1.7,3.1c-1.9,0.6-3.8,1.4-5.4,2.5c-2.9,1.9-4.8,6.5-4.8,6.5
	c0.5-3.2,1.9-6.2,4-8.6C61.9,54.7,60.2,57.4,59.3,63.5L59.3,63.5z M68.9,62.5c-0.4,0.1-3.1,0.1-6.3,0.6c-0.6,0.1-1.2,0.2-1.9,0.3
	c0.2-0.5,0.4-0.9,0.6-1.3l0,0c2.4,0,6.2,0.1,7.1,0.2s1.8,0,1.8,0C69.8,62.4,69.3,62.5,68.9,62.5L68.9,62.5z M70,61.6
	c-0.4,0-1.5,0-3.2-0.2S62,61,62,61c1.5-4,6.6-6.2,6.6-6.2c-0.1,1.2-0.3,2.3-0.8,3.3c0.6,0,1.2,0,1.8,0.2c0.7,0.3,1.1,0.5,1.3,1.9
	S70.3,61.6,70,61.6L70,61.6z M61.8,43c-1.4,0.2-1.9,0.5-2.8,0.6l0,0c0.9,0.2,1.8,0.3,2.8,0.4c0.4,0.1,0.7,0.2,1,0.5l-0.4,1.7
	c-1.3,0.7-2.4,1.6-3.3,2.7c-0.1,0.1-0.2,0.2-0.2,0.3l-0.1,0.2l-0.1,0.2l-0.1,0.2L58.4,50c-0.1,0.3-0.3,0.7-0.4,1v0.1
	c-0.1,0.2-0.1,0.4-0.2,0.5v0.2c0,0,0.1-0.2,0.3-0.5l0.1-0.2c0.4-0.6,0.8-1.2,1.3-1.7l0.2-0.2c0.2-0.1,0.3-0.3,0.5-0.4
	c1.3-0.9,1.9-1.2,2.3-1.6c0.1-0.1,0.1-0.1,0.2-0.2c0.3-0.7,0.5-1.4,0.5-2.2l0,0v0c0,0,0-0.1,0-0.1l0,0c-0.2-0.4-0.4-0.7-0.7-1.1
	c0.5-0.2,1-0.4,1.6-0.4C63.5,43,62.7,42.9,61.8,43z M64.2,43.2c-0.8-0.3-1.6-0.3-2.4-0.2c-1.4,0.2-1.9,0.5-2.8,0.6l0,0
	c0.9,0.2,1.8,0.3,2.8,0.4c0.4,0.1,0.7,0.2,1,0.5l-0.4,1.7c-1.3,0.7-2.4,1.6-3.3,2.7c-0.1,0.1-0.2,0.2-0.2,0.3l-0.1,0.2l-0.1,0.2
	l-0.1,0.2L58.4,50c-0.1,0.3-0.3,0.7-0.4,1v0.1c-0.1,0.2-0.1,0.4-0.2,0.5v0.2c0,0,0.1-0.2,0.3-0.5l0.1-0.2c0.4-0.6,0.8-1.2,1.3-1.7
	l0.2-0.2c0.2-0.1,0.3-0.3,0.5-0.4c1.3-0.9,1.9-1.2,2.3-1.6c0.1-0.1,0.1-0.1,0.2-0.2c0.3-0.7,0.5-1.4,0.5-2.2l0,0v0c0,0,0-0.1,0-0.1
	l0,0c-0.2-0.4-0.4-0.7-0.7-1.1C63.2,43.4,63.7,43.3,64.2,43.2L64.2,43.2z M64.2,43.2c-0.8-0.3-1.6-0.3-2.4-0.2
	c-1.4,0.2-1.9,0.5-2.8,0.6l0,0c0.9,0.2,1.8,0.3,2.8,0.4c0.4,0.1,0.7,0.2,1,0.5l-0.4,1.7c-1.3,0.7-2.4,1.6-3.3,2.7
	c-0.1,0.1-0.2,0.2-0.2,0.3l-0.1,0.2l-0.1,0.2l-0.1,0.2L58.4,50c-0.1,0.3-0.3,0.7-0.4,1v0.1c-0.1,0.2-0.1,0.4-0.2,0.5v0.2
	c0,0,0.1-0.2,0.3-0.5l0.1-0.2c0.4-0.6,0.8-1.2,1.3-1.7l0.2-0.2c0.2-0.1,0.3-0.3,0.5-0.4c1.3-0.9,1.9-1.2,2.3-1.6
	c0.1-0.1,0.1-0.1,0.2-0.2c0.3-0.7,0.5-1.4,0.5-2.2l0,0v0c0,0,0-0.1,0-0.1l0,0c-0.2-0.4-0.4-0.7-0.7-1.1
	C63.2,43.4,63.7,43.3,64.2,43.2L64.2,43.2z M64.2,43.2c-0.8-0.3-1.6-0.3-2.4-0.2c-1.4,0.2-1.9,0.5-2.8,0.6l0,0
	c0.9,0.2,1.8,0.3,2.8,0.4c0.4,0.1,0.7,0.2,1,0.5l-0.4,1.7c-1.3,0.7-2.4,1.6-3.3,2.7c-0.1,0.1-0.2,0.2-0.2,0.3l-0.1,0.2l-0.1,0.2
	l-0.1,0.2L58.4,50c-0.1,0.3-0.3,0.7-0.4,1v0.1c-0.1,0.2-0.1,0.4-0.2,0.5v0.2c0,0,0.1-0.2,0.3-0.5l0.1-0.2c0.4-0.6,0.8-1.2,1.3-1.7
	l0.2-0.2c0.2-0.1,0.3-0.3,0.5-0.4c1.3-0.9,1.9-1.2,2.3-1.6c0.1-0.1,0.1-0.1,0.2-0.2c0.3-0.7,0.5-1.4,0.5-2.2l0,0v0c0,0,0-0.1,0-0.1
	l0,0c-0.2-0.4-0.4-0.7-0.7-1.1C63.2,43.4,63.7,43.3,64.2,43.2L64.2,43.2z M64.2,43.2c-0.8-0.3-1.6-0.3-2.4-0.2
	c-1.4,0.2-1.9,0.5-2.8,0.6l0,0c0.9,0.2,1.8,0.3,2.8,0.4c0.4,0.1,0.7,0.2,1,0.5l-0.4,1.7c-1.3,0.7-2.4,1.6-3.3,2.7
	c-0.1,0.1-0.2,0.2-0.2,0.3l-0.1,0.2l-0.1,0.2l-0.1,0.2L58.4,50c-0.1,0.3-0.3,0.7-0.4,1v0.1c-0.1,0.2-0.1,0.4-0.2,0.5v0.2
	c0,0,0.1-0.2,0.3-0.5l0.1-0.2c0.4-0.6,0.8-1.2,1.3-1.7l0.2-0.2c0.2-0.1,0.3-0.3,0.5-0.4c1.3-0.9,1.9-1.2,2.3-1.6
	c0.1-0.1,0.1-0.1,0.2-0.2c0.3-0.7,0.5-1.4,0.5-2.2l0,0v0c0,0,0-0.1,0-0.1l0,0c-0.2-0.4-0.4-0.7-0.7-1.1
	C63.2,43.4,63.7,43.3,64.2,43.2L64.2,43.2z"/>
  <path class="st0" d="M72.7,59.2c-0.2-1.1-1-2-2.1-2.4h-0.2c0.2-0.6,0.3-1.3,0.3-1.9c0.5-0.2,1-0.5,1.3-0.5l0.9-0.3l-0.2-0.9
	c-0.3-1.4-0.9-2.8-1.8-4c0.2-0.4,0.3-0.9,0.3-1.3c0-0.7-0.6-1.4-1.7-2.1c-0.2-0.3-0.3-0.7-0.2-1c0-0.5-0.1-1-0.2-1.4
	c0.8-0.5,1.4-1.2,1.7-2.1c0.3-0.8,0.5-1.6,0.6-2.5c0-0.3,0-0.7,0-1l-0.1-1.3l-1,0.8l-0.2,0.2l-0.2,0.1c-0.3,0.2-0.6,0.3-0.7,0.4
	c-0.4,0.2-0.8,0.3-1.2,0.5c-1.5-6.1-4.8-11.6-9.6-15.6c-7.5-6.8-19.9-8-20.4-8.1l-1.2-0.1c0,0.7,0,1.5-0.1,2.2v0.1
	c0,0.2-0.1,0.5-0.1,0.7c-1.2-0.6-2.1-1.5-2.9-2.6c-0.7-1.4-1.2-2.8-1.4-4.4c-0.2-1-0.4-1.9-0.8-2.8c-1-2.3-2.4-4.4-4.3-6
	C26.9,1.3,26.4,1,25.9,1c-0.3,0-0.6,0.1-0.8,0.3c-0.6,0.5-0.7,1.3-0.2,1.9c0,0,0.1,0.1,0.1,0.1c0.9,1.7,1.4,3.6,1.7,5.5
	c0.1,1.2,0.2,2.5,0.2,3.7c0.1,2.8,0.2,6,1.2,8.3c0.5,1,1.1,2,1.8,2.8l0.4,0.4l0.3,0.4c-1.2-0.1-2.3-0.4-3.3-1l0,0
	c-3.4-1.9-5.6-5.4-6-9.3l-0.1-0.5c-0.1-0.7-0.1-1.4-0.1-2.2c0-0.4,0-0.9,0-1.3c-0.1-1.1-0.2-2.2-0.4-3.3c-0.1-0.5-0.2-0.9-0.3-1.4
	l0,0c-0.1-0.3-0.1-0.6-0.2-0.9c-0.1-0.2-0.1-0.4-0.2-0.6c-0.2-0.5-0.4-0.9-0.7-1.4c-0.3-0.5-0.7-1-1.1-1.4c-0.3-0.3-0.6-0.6-0.9-0.8
	l0,0C17.1,0.1,16.8,0,16.5,0c-0.2,0-0.4,0.1-0.6,0.2l-0.1,0.1c-0.6,0.5-0.8,1.3-0.3,2v0.1l0.1,0.1c0,0.1,0,0.1,0.1,0.2
	c0,0.1,0,0.2,0.1,0.2c0.2,2.1,0.1,4.2-0.4,6.3v0.2C15.1,10,15,10.5,15,11c-0.4,2-0.6,4.1-0.7,6.1c0,0.1,0,0.2,0,0.3v0.1
	c0,1.5,0.2,14.4,13,18.9l0,0l0,0c-0.4,2.4-0.6,4.7-0.6,7.1c-2.8,1.1-5.5,2.4-8.1,3.9c-4.1,2.2-7.9,5-11.2,8.2c-0.7,0.7-1.3,1.3-2,2
	L5,58.1l0,0c-1.6,1.7-3.1,3.6-4.5,5.6c-0.1,0.1-0.1,0.2-0.2,0.4C0,64.5,0,65,0.3,65.4c0.3,0.3,0.9,0.4,1.2,0.1l0.2-0.1l0.4-0.2
	c4.2-3.2,13.9-5,16.8-5.2c2.4-0.1,4.7-0.5,5.6-0.6c0.8,0.4,1.6,0.7,2.5,0.8c0.5,0.1,0.9,0.2,1.4,0.2c0.4,0,0.8,0,1.2-0.1
	c0.6,1.7,1.6,3.3,2.9,4.6c-0.1,2,0.3,3.9,1.2,5.6c0.7,1.1,1.6,2.2,2.7,3c-0.1,1.7,0.5,3.3,1.5,4.6c-0.2,0.5-0.3,1-0.3,1.5
	c0,0.5,0.1,1.1,0.3,1.6c-0.4,0.7-0.5,1.6-0.2,2.4c-0.1,0.3-0.2,0.6-0.3,0.9c-0.1,0.4,0,0.8,0.1,1.2c-0.3,1-0.7,2.9,0.5,3.9
	c0.4,0.3,0.8,0.5,1.3,0.5c0.8-0.1,1.6-0.4,2.1-1.1c0.6-0.3,1.2-0.8,1.6-1.3c0.2-0.4,0.4-0.8,0.5-1.2c0.3-0.3,0.6-0.7,0.8-1.2
	c0.2-0.4,0.3-0.8,0.3-1.2c1-1.2,1.8-2.7,2.2-4.2l0.1-0.6c0-0.1,0-0.1,0-0.2c0.2-1.4,0.2-2.8-0.1-4.2c0.8-1.4,1.2-2.9,1.3-4.5
	c1.4-0.9,2.9-1.7,4.5-2.4c0.1,1.4,0,2.9-0.3,4.3c-0.5,1.9-1.5,3.6-2.9,5c-0.3,0.3-1,1.1-1,1.1c-0.2,0.2-0.3,0.4-0.2,0.7
	c0,0.1,0,0.1,0,0.2c0,0,0,0.1,0.1,0.1c0.5,0.2,1,0.3,1.5,0.2c4.7-0.5,7.9-4.4,9.2-7.7c0.8-2.1,1.5-4.2,2.1-6.4
	c2.7-0.5,5.2-0.7,6.9-0.9c0.8-0.1,1.4-0.1,1.8-0.2c1-0.2,3-0.4,3.1-2.3C73,61.1,72.9,60.1,72.7,59.2z M71.9,61.9
	c0,0.6-0.5,1-2.2,1.3c-1.3,0.2-5.2,0.4-9.4,1.2c-0.6,2.3-1.3,4.6-2.2,6.9c-1.2,2.8-4,6.6-8.4,7.1c1.8-1.6,3.2-3.7,3.8-6
	c0.4-2,0.4-4.1,0.2-6.1c-2.3,0.9-4.5,2.1-6.5,3.5c0,1.7-0.5,3.4-1.4,4.8c0.3,1.4,0.4,2.8,0.2,4.3c-0.4,1.7-1.2,3.4-2.4,4.7
	c0,0.4-0.1,0.8-0.3,1.1c-0.2,0.4-0.5,0.8-0.9,1.1c0,0.4-0.2,0.8-0.4,1.2c-0.3,0.5-0.8,0.8-1.3,1c0,0-1.1,1.4-2,0.7s-0.3-2.7-0.1-3.1
	c-0.2-0.3-0.2-0.7-0.2-1c0.1-0.3,0.2-0.7,0.4-1c-0.2-0.4-0.2-0.8-0.2-1.3c0.1-0.4,0.3-0.8,0.6-1.2c-0.4-0.4-0.6-0.9-0.5-1.5
	c0-0.6,0.2-1.2,0.5-1.7c-0.6-0.6-1.1-1.4-1.5-2.2c-0.3-0.9-0.4-1.8-0.3-2.8c-1.1-0.8-2.1-1.8-2.9-3c-0.8-1.7-1.2-3.6-1-5.5
	c-1.7-1.4-2.8-3.3-3.3-5.4c-1,0.3-2.1,0.3-3.2,0.2c-0.9-0.2-1.7-0.5-2.5-0.9c0,0-2.9,0.5-5.8,0.7S7,60.3,1.2,64.5
	c1.4-2,2.9-3.8,4.5-5.6l0,0l0.5-0.5c0.6-0.7,1.3-1.3,2-2c3.3-3.2,7-5.9,11-8.1c2.8-1.6,5.7-3,8.7-4.1v-0.1c0,0-0.3-2.3,0.5-7.8
	c0-0.2,0.1-0.5,0.2-0.8c-12.9-3.9-13.2-16.3-13.2-18.1c0-0.1,0-0.3,0-0.4c0.1-2,0.3-4,0.7-6c0.1-0.6,0.2-1.1,0.2-1.7l0,0
	c0.6-2.2,0.7-4.5,0.5-6.8c0-0.1,0-0.2-0.1-0.4c0-0.1-0.1-0.2-0.1-0.3c0-0.1-0.1-0.2-0.1-0.2c-0.2-0.5,0-0.6,0-0.6
	c0.1,0,0.3,0,0.4,0.1c0.3,0.2,0.5,0.4,0.7,0.6c0.3,0.4,0.7,0.8,0.9,1.3c0.2,0.4,0.4,0.8,0.5,1.2c0.1,0.2,0.1,0.4,0.2,0.6
	c0.1,0.3,0.2,0.5,0.2,0.8l0,0c0.1,0.5,0.2,0.9,0.3,1.4c0.2,1.1,0.3,2.1,0.3,3.2c0,1.2,0,2.4,0.1,3.6l0.1,0.5c0.5,4.3,2.9,8,6.6,10.1
	c2,1,4.2,1.4,6.4,1.1l-0.3-0.3l-0.1-0.1c-1.5-1.3-2.7-2.9-3.6-4.6c-1.5-3.3-0.9-8.5-1.4-11.8c-0.3-2.1-0.9-4.1-1.9-5.9
	c-0.1-0.2-0.2-0.4,0-0.6s0.3,0,0.6,0.3c1.7,1.5,3.1,3.4,4,5.6c0.8,2,0.7,4.4,2.3,7.3c1.1,1.6,2.6,2.9,4.4,3.7l0.1-0.1
	c0.3-0.6,0.5-1.3,0.6-2c0.1-0.4,0.2-0.9,0.1-1.3c0,0,12.5,1.2,19.9,7.8s9.1,13.9,9.3,16.1c0,0,2.7-0.4,3.3-1.4
	c0,0.9-0.2,1.8-0.5,2.6c-0.4,0.9-1.1,1.6-2,2c0.3,0.6,0.5,1.2,0.5,1.9c-0.1,0.7,0.1,1.4,0.7,1.9c0.5,0.2,0.9,0.7,1.2,1.2
	c-0.1,0.5-0.3,1.1-0.5,1.6c1,1.2,1.7,2.5,2,4c0,0-1.3,0.5-1.9,0.8c-0.1,1.1-0.3,2.3-0.7,3.3c0,0,1,0.3,1.4,0.3
	c0.6,0.3,1.1,0.8,1.3,1.5C71.9,60.2,71.9,61.1,71.9,61.9z"/>
</svg>
